<mxfile host="app.diagrams.net" agent="Mozilla/5.0 (Windows NT 10.0; Win64; x64) AppleWebKit/537.36 (KHTML, like Gecko) Chrome/129.0.0.0 Safari/537.36" version="24.7.17">
  <diagram name="Page-1" id="8PZzQUvYt4ueWSNvluzU">
    <mxGraphModel dx="1257" dy="620" grid="1" gridSize="10" guides="1" tooltips="1" connect="1" arrows="1" fold="1" page="1" pageScale="1" pageWidth="850" pageHeight="1100" math="0" shadow="0">
      <root>
        <mxCell id="0" />
        <mxCell id="1" parent="0" />
        <mxCell id="emDB4eh1lMRL8pq1mr14-1" value="" style="endArrow=none;dashed=1;html=1;dashPattern=1 3;strokeWidth=2;rounded=0;" edge="1" parent="1">
          <mxGeometry width="50" height="50" relative="1" as="geometry">
            <mxPoint x="310" y="760" as="sourcePoint" />
            <mxPoint x="310" y="137.77777777777777" as="targetPoint" />
          </mxGeometry>
        </mxCell>
        <mxCell id="emDB4eh1lMRL8pq1mr14-2" value="" style="endArrow=none;dashed=1;html=1;dashPattern=1 3;strokeWidth=2;rounded=0;" edge="1" parent="1">
          <mxGeometry width="50" height="50" relative="1" as="geometry">
            <mxPoint x="1050" y="762.22" as="sourcePoint" />
            <mxPoint x="1050" y="139.99777777777777" as="targetPoint" />
          </mxGeometry>
        </mxCell>
        <mxCell id="emDB4eh1lMRL8pq1mr14-3" value="VIEW" style="text;strokeColor=none;fillColor=none;html=1;fontSize=24;fontStyle=1;verticalAlign=middle;align=center;" vertex="1" parent="1">
          <mxGeometry x="40" y="220" width="100" height="40" as="geometry" />
        </mxCell>
        <mxCell id="emDB4eh1lMRL8pq1mr14-4" value="BUSINESS&lt;div&gt;&lt;br&gt;&lt;/div&gt;" style="text;strokeColor=none;fillColor=none;html=1;fontSize=24;fontStyle=1;verticalAlign=middle;align=center;" vertex="1" parent="1">
          <mxGeometry x="710" y="40" width="100" height="40" as="geometry" />
        </mxCell>
        <mxCell id="emDB4eh1lMRL8pq1mr14-5" value="INFRA&lt;div&gt;&lt;br&gt;&lt;/div&gt;" style="text;strokeColor=none;fillColor=none;html=1;fontSize=24;fontStyle=1;verticalAlign=middle;align=center;" vertex="1" parent="1">
          <mxGeometry x="1090" y="210" width="100" height="40" as="geometry" />
        </mxCell>
        <mxCell id="emDB4eh1lMRL8pq1mr14-6" value="" style="rounded=0;whiteSpace=wrap;html=1;" vertex="1" parent="1">
          <mxGeometry x="350" y="90" width="690" height="510" as="geometry" />
        </mxCell>
        <mxCell id="emDB4eh1lMRL8pq1mr14-7" value="" style="rounded=0;whiteSpace=wrap;html=1;" vertex="1" parent="1">
          <mxGeometry x="350" y="640" width="690" height="310" as="geometry" />
        </mxCell>
        <mxCell id="emDB4eh1lMRL8pq1mr14-8" value="&lt;font style=&quot;font-size: 18px;&quot;&gt;CONTROL&lt;/font&gt;" style="text;strokeColor=none;fillColor=none;html=1;fontSize=24;fontStyle=1;verticalAlign=middle;align=center;" vertex="1" parent="1">
          <mxGeometry x="560" y="100" width="100" height="40" as="geometry" />
        </mxCell>
        <mxCell id="emDB4eh1lMRL8pq1mr14-9" value="&lt;font style=&quot;font-size: 18px;&quot;&gt;MODEL&lt;/font&gt;" style="text;strokeColor=none;fillColor=none;html=1;fontSize=24;fontStyle=1;verticalAlign=middle;align=center;" vertex="1" parent="1">
          <mxGeometry x="550" y="640" width="100" height="40" as="geometry" />
        </mxCell>
        <mxCell id="emDB4eh1lMRL8pq1mr14-10" value="UsuarioController" style="html=1;whiteSpace=wrap;" vertex="1" parent="1">
          <mxGeometry x="570" y="410" width="110" height="50" as="geometry" />
        </mxCell>
        <mxCell id="emDB4eh1lMRL8pq1mr14-11" value="ValidarSenha" style="html=1;whiteSpace=wrap;" vertex="1" parent="1">
          <mxGeometry x="390" y="360" width="110" height="50" as="geometry" />
        </mxCell>
        <mxCell id="emDB4eh1lMRL8pq1mr14-12" value="ValidarLogin" style="html=1;whiteSpace=wrap;" vertex="1" parent="1">
          <mxGeometry x="390" y="280" width="110" height="50" as="geometry" />
        </mxCell>
        <mxCell id="emDB4eh1lMRL8pq1mr14-13" value="ValidarUsuario" style="html=1;whiteSpace=wrap;" vertex="1" parent="1">
          <mxGeometry x="570" y="330" width="110" height="50" as="geometry" />
        </mxCell>
        <mxCell id="emDB4eh1lMRL8pq1mr14-14" value="" style="endArrow=diamondThin;endFill=1;endSize=24;html=1;rounded=0;exitX=1;exitY=0.5;exitDx=0;exitDy=0;entryX=0.5;entryY=0;entryDx=0;entryDy=0;" edge="1" parent="1" source="emDB4eh1lMRL8pq1mr14-12" target="emDB4eh1lMRL8pq1mr14-13">
          <mxGeometry width="160" relative="1" as="geometry">
            <mxPoint x="690" y="480" as="sourcePoint" />
            <mxPoint x="850" y="480" as="targetPoint" />
            <Array as="points">
              <mxPoint x="615" y="305" />
            </Array>
          </mxGeometry>
        </mxCell>
        <mxCell id="emDB4eh1lMRL8pq1mr14-15" value="" style="endArrow=diamondThin;endFill=1;endSize=24;html=1;rounded=0;exitX=1;exitY=0.5;exitDx=0;exitDy=0;entryX=0;entryY=0.5;entryDx=0;entryDy=0;" edge="1" parent="1" source="emDB4eh1lMRL8pq1mr14-11" target="emDB4eh1lMRL8pq1mr14-13">
          <mxGeometry width="160" relative="1" as="geometry">
            <mxPoint x="880" y="350" as="sourcePoint" />
            <mxPoint x="990" y="410" as="targetPoint" />
            <Array as="points" />
          </mxGeometry>
        </mxCell>
        <mxCell id="emDB4eh1lMRL8pq1mr14-16" value="" style="endArrow=none;html=1;rounded=0;entryX=0.5;entryY=1;entryDx=0;entryDy=0;exitX=0.5;exitY=0;exitDx=0;exitDy=0;" edge="1" parent="1" source="emDB4eh1lMRL8pq1mr14-10" target="emDB4eh1lMRL8pq1mr14-13">
          <mxGeometry width="50" height="50" relative="1" as="geometry">
            <mxPoint x="750" y="510" as="sourcePoint" />
            <mxPoint x="800" y="460" as="targetPoint" />
          </mxGeometry>
        </mxCell>
        <mxCell id="emDB4eh1lMRL8pq1mr14-17" value="AvaliacaoController" style="html=1;whiteSpace=wrap;" vertex="1" parent="1">
          <mxGeometry x="500" y="500" width="110" height="50" as="geometry" />
        </mxCell>
        <mxCell id="emDB4eh1lMRL8pq1mr14-18" style="edgeStyle=orthogonalEdgeStyle;rounded=0;orthogonalLoop=1;jettySize=auto;html=1;dashed=1;endArrow=openThin;endFill=0;" edge="1" parent="1" source="emDB4eh1lMRL8pq1mr14-19" target="emDB4eh1lMRL8pq1mr14-29">
          <mxGeometry relative="1" as="geometry" />
        </mxCell>
        <mxCell id="emDB4eh1lMRL8pq1mr14-19" value="&lt;div&gt;[Sgleton Facade]&lt;/div&gt;Facade" style="html=1;whiteSpace=wrap;" vertex="1" parent="1">
          <mxGeometry x="670" y="530" width="110" height="50" as="geometry" />
        </mxCell>
        <mxCell id="emDB4eh1lMRL8pq1mr14-20" style="edgeStyle=orthogonalEdgeStyle;rounded=0;orthogonalLoop=1;jettySize=auto;html=1;entryX=0.5;entryY=1;entryDx=0;entryDy=0;" edge="1" parent="1" source="emDB4eh1lMRL8pq1mr14-21" target="emDB4eh1lMRL8pq1mr14-19">
          <mxGeometry relative="1" as="geometry" />
        </mxCell>
        <mxCell id="emDB4eh1lMRL8pq1mr14-21" value="&lt;div&gt;&amp;lt;&amp;lt;entity&amp;gt;&amp;gt;&lt;/div&gt;Usuario" style="html=1;whiteSpace=wrap;" vertex="1" parent="1">
          <mxGeometry x="670" y="670" width="110" height="50" as="geometry" />
        </mxCell>
        <mxCell id="emDB4eh1lMRL8pq1mr14-23" value="&lt;div&gt;&amp;lt;&amp;lt;entity&amp;gt;&amp;gt;&lt;/div&gt;&lt;div&gt;Condomino&lt;span style=&quot;color: rgba(0, 0, 0, 0); font-family: monospace; font-size: 0px; text-align: start; text-wrap: nowrap; background-color: initial;&quot;&gt;%3CmxGraphModel%3E%3Croot%3E%3CmxCell%20id%3D%220%22%2F%3E%3CmxCell%20id%3D%221%22%20parent%3D%220%22%2F%3E%3CmxCell%20id%3D%222%22%20value%3D%22%26lt%3Bdiv%26gt%3B%26amp%3Blt%3B%26amp%3Blt%3Bentity%26amp%3Bgt%3B%26amp%3Bgt%3B%26lt%3B%2Fdiv%26gt%3BUsuario%22%20style%3D%22html%3D1%3BwhiteSpace%3Dwrap%3B%22%20vertex%3D%221%22%20parent%3D%221%22%3E%3CmxGeometry%20x%3D%22360%22%20y%3D%22530%22%20width%3D%22110%22%20height%3D%2250%22%20as%3D%22geometry%22%2F%3E%3C%2FmxCell%3E%3C%2Froot%3E%3C%2FmxGraphModel%3E&lt;/span&gt;&lt;/div&gt;" style="html=1;whiteSpace=wrap;" vertex="1" parent="1">
          <mxGeometry x="760" y="820" width="110" height="50" as="geometry" />
        </mxCell>
        <mxCell id="emDB4eh1lMRL8pq1mr14-25" value="&lt;div&gt;&amp;lt;&amp;lt;entity&amp;gt;&amp;gt;&lt;/div&gt;&lt;div style=&quot;text-align: center;&quot;&gt;&lt;span style=&quot;text-align: start; background-color: initial;&quot;&gt;Prestador&lt;/span&gt;&lt;span style=&quot;background-color: initial; color: rgba(0, 0, 0, 0); font-family: monospace; font-size: 0px; text-align: start; text-wrap: nowrap;&quot;&gt;%3CmxGraphModel%3E%3Croot%3E%3CmxCell%20id%3D%220%22%2F%3E%3CmxCell%20id%3D%221%22%20parent%3D%220%22%2F%3E%3CmxCell%20id%3D%222%22%20value%3D%22%26lt%3Bdiv%26gt%3B%26amp%3Blt%3B%26amp%3Blt%3Bentity%26amp%3Bgt%3B%26amp%3Bgt%3B%26lt%3B%2Fdiv%26gt%3BUsuario%22%20style%3D%22html%3D1%3BwhiteSpace%3Dwrap%3B%22%20vertex%3D%221%22%20parent%3D%221%22%3E%3CmxGeometry%20x%3D%22360%22%20y%3D%22530%22%20width%3D%22110%22%20height%3D%2250%22%20as%3D%22geometry%22%2F%3E%3C%2FmxCell%3E%3C%2Froot%3E%3C%2FmxGraphModel&lt;/span&gt;&lt;/div&gt;" style="html=1;whiteSpace=wrap;" vertex="1" parent="1">
          <mxGeometry x="580" y="820" width="110" height="50" as="geometry" />
        </mxCell>
        <mxCell id="emDB4eh1lMRL8pq1mr14-26" value="&lt;div&gt;&amp;lt;&amp;lt;entity&amp;gt;&amp;gt;&lt;/div&gt;&lt;div style=&quot;text-align: center;&quot;&gt;&lt;span style=&quot;text-align: start; background-color: initial;&quot;&gt;Avaliacao&lt;/span&gt;&lt;span style=&quot;color: rgba(0, 0, 0, 0); font-family: monospace; font-size: 0px; text-align: start; text-wrap: nowrap; background-color: initial;&quot;&gt;%3CmxGraphModel%3E%3Croot%3E%3CmxCell%20id%3D%220%22%2F%3E%3CmxCell%20id%3D%221%22%20parent%3D%220%22%2F%3E%3CmxCell%20id%3D%222%22%20value%3D%22%26lt%3Bdiv%26gt%3B%26amp%3Blt%3B%26amp%3Blt%3Bentity%26amp%3Bgt%3B%26amp%3Bgt%3B%26lt%3B%2Fdiv%26gt%3BUsuario%22%20style%3D%22html%3D1%3BwhiteSpace%3Dwrap%3B%22%20vertex%3D%221%22%20parent%3D%221%22%3E%3CmxGeometry%20x%3D%22360%22%20y%3D%22530%22%20width%3D%22110%22%20height%3D%2250%22%20as%3D%22geometry%22%2F%3E%3C%2FmxCell%3E%3C%2Froot%3E%3C%2FmxGraphModel%3E&lt;/span&gt;&lt;/div&gt;" style="html=1;whiteSpace=wrap;" vertex="1" parent="1">
          <mxGeometry x="900" y="670" width="110" height="50" as="geometry" />
        </mxCell>
        <mxCell id="emDB4eh1lMRL8pq1mr14-27" value="" style="endArrow=diamondThin;endFill=1;endSize=24;html=1;rounded=0;exitX=0.5;exitY=1;exitDx=0;exitDy=0;entryX=0;entryY=0.75;entryDx=0;entryDy=0;" edge="1" parent="1" source="emDB4eh1lMRL8pq1mr14-17" target="emDB4eh1lMRL8pq1mr14-19">
          <mxGeometry width="160" relative="1" as="geometry">
            <mxPoint x="845" y="360" as="sourcePoint" />
            <mxPoint x="670" y="570" as="targetPoint" />
            <Array as="points">
              <mxPoint x="555" y="568" />
            </Array>
          </mxGeometry>
        </mxCell>
        <mxCell id="emDB4eh1lMRL8pq1mr14-28" value="" style="endArrow=diamondThin;endFill=1;endSize=24;html=1;rounded=0;exitX=0.5;exitY=1;exitDx=0;exitDy=0;entryX=0;entryY=0.25;entryDx=0;entryDy=0;" edge="1" parent="1" source="emDB4eh1lMRL8pq1mr14-10" target="emDB4eh1lMRL8pq1mr14-19">
          <mxGeometry width="160" relative="1" as="geometry">
            <mxPoint x="625" y="360" as="sourcePoint" />
            <mxPoint x="680" y="405" as="targetPoint" />
            <Array as="points">
              <mxPoint x="620" y="490" />
            </Array>
          </mxGeometry>
        </mxCell>
        <mxCell id="emDB4eh1lMRL8pq1mr14-29" value="UsuarioService" style="html=1;whiteSpace=wrap;" vertex="1" parent="1">
          <mxGeometry x="760" y="380" width="110" height="50" as="geometry" />
        </mxCell>
        <mxCell id="emDB4eh1lMRL8pq1mr14-30" value="APIRouter" style="html=1;whiteSpace=wrap;" vertex="1" parent="1">
          <mxGeometry x="890" y="380" width="110" height="50" as="geometry" />
        </mxCell>
        <mxCell id="emDB4eh1lMRL8pq1mr14-31" style="rounded=0;orthogonalLoop=1;jettySize=auto;html=1;dashed=1;endArrow=openThin;endFill=0;exitX=1;exitY=0.75;exitDx=0;exitDy=0;entryX=0;entryY=0.5;entryDx=0;entryDy=0;" edge="1" parent="1" source="emDB4eh1lMRL8pq1mr14-19" target="emDB4eh1lMRL8pq1mr14-32">
          <mxGeometry relative="1" as="geometry">
            <mxPoint x="735" y="540" as="sourcePoint" />
            <mxPoint x="735" y="320" as="targetPoint" />
          </mxGeometry>
        </mxCell>
        <mxCell id="emDB4eh1lMRL8pq1mr14-32" value="UsuarioRepositoryFactory" style="html=1;whiteSpace=wrap;" vertex="1" parent="1">
          <mxGeometry x="1140" y="540" width="180" height="50" as="geometry" />
        </mxCell>
        <mxCell id="emDB4eh1lMRL8pq1mr14-33" value="" style="endArrow=diamondThin;endFill=0;endSize=24;html=1;rounded=0;entryX=0.5;entryY=1;entryDx=0;entryDy=0;exitX=1;exitY=0.5;exitDx=0;exitDy=0;" edge="1" parent="1" source="emDB4eh1lMRL8pq1mr14-19" target="emDB4eh1lMRL8pq1mr14-30">
          <mxGeometry width="160" relative="1" as="geometry">
            <mxPoint x="770" y="440" as="sourcePoint" />
            <mxPoint x="930" y="440" as="targetPoint" />
          </mxGeometry>
        </mxCell>
        <mxCell id="emDB4eh1lMRL8pq1mr14-34" value="UsuarioRepositoryInterface" style="html=1;whiteSpace=wrap;" vertex="1" parent="1">
          <mxGeometry x="1360" y="540" width="180" height="50" as="geometry" />
        </mxCell>
        <mxCell id="emDB4eh1lMRL8pq1mr14-35" value="UsuarioRepositoryInMemory&lt;span style=&quot;color: rgba(0, 0, 0, 0); font-family: monospace; font-size: 0px; text-align: start; text-wrap: nowrap;&quot;&gt;%3CmxGraphModel%3E%3Croot%3E%3CmxCell%20id%3D%220%22%2F%3E%3CmxCell%20id%3D%221%22%20parent%3D%220%22%2F%3E%3CmxCell%20id%3D%222%22%20value%3D%22UsuarioRepositoryInterface%22%20style%3D%22html%3D1%3BwhiteSpace%3Dwrap%3B%22%20vertex%3D%221%22%20parent%3D%221%22%3E%3CmxGeometry%20x%3D%22990%22%20y%3D%22310%22%20width%3D%22180%22%20height%3D%2250%22%20as%3D%22geometry%22%2F%3E%3C%2FmxCell%3E%3C%2Froot%3E%3C%2FmxGraphModel%3E&lt;/span&gt;" style="html=1;whiteSpace=wrap;" vertex="1" parent="1">
          <mxGeometry x="1360" y="630" width="180" height="50" as="geometry" />
        </mxCell>
        <mxCell id="emDB4eh1lMRL8pq1mr14-36" value="UsuarioRepositoryInDB" style="html=1;whiteSpace=wrap;" vertex="1" parent="1">
          <mxGeometry x="1360" y="450" width="180" height="50" as="geometry" />
        </mxCell>
        <mxCell id="emDB4eh1lMRL8pq1mr14-37" value="AppConfig" style="html=1;whiteSpace=wrap;" vertex="1" parent="1">
          <mxGeometry x="1090" y="290" width="180" height="50" as="geometry" />
        </mxCell>
        <mxCell id="emDB4eh1lMRL8pq1mr14-38" value="&lt;div&gt;&amp;lt;&amp;lt;Enum&amp;gt;&amp;gt;&lt;/div&gt;&lt;div style=&quot;text-align: center;&quot;&gt;&lt;span style=&quot;text-align: start; background-color: initial;&quot;&gt;Servico&lt;/span&gt;&lt;span style=&quot;color: rgba(0, 0, 0, 0); font-family: monospace; font-size: 0px; text-align: start; text-wrap: nowrap; background-color: initial;&quot;&gt;%3CmxGraphModel%3E%3Croot%3E%3CmxCell%20id%3D%220%22%2F%3E%3CmxCell%20id%3D%221%22%20parent%3D%220%22%2F%3E%3CmxCell%20id%3D%222%22%20value%3D%22%26lt%3Bdiv%26gt%3B%26amp%3Blt%3B%26amp%3Blt%3Bentity%26amp%3Bgt%3B%26amp%3Bgt%3B%26lt%3B%2Fdiv%26gt%3BUsuario%22%20style%3D%22html%3D1%3BwhiteSpace%3Dwrap%3B%22%20vertex%3D%221%22%20parent%3D%221%22%3E%3CmxGeometry%20x%3D%22360%22%20y%3D%22530%22%20width%3D%22110%22%20height%3D%2250%22%20as%3D%22geometry%22%2F%3E%3C%2FmxCell%3E%3C%2Froot%3E%3C%2FmxGraphModel%3E&lt;/span&gt;&lt;/div&gt;" style="html=1;whiteSpace=wrap;" vertex="1" parent="1">
          <mxGeometry x="920" y="790" width="110" height="50" as="geometry" />
        </mxCell>
        <mxCell id="emDB4eh1lMRL8pq1mr14-39" value="&lt;div&gt;&amp;lt;&amp;lt;Enum&amp;gt;&amp;gt;&lt;/div&gt;&lt;div style=&quot;text-align: center;&quot;&gt;&lt;span style=&quot;text-align: start; background-color: initial;&quot;&gt;Usuarios&lt;/span&gt;&lt;span style=&quot;color: rgba(0, 0, 0, 0); font-family: monospace; font-size: 0px; text-align: start; text-wrap: nowrap; background-color: initial;&quot;&gt;%3CmxGraphModel%3E%3Croot%3E%3CmxCell%20id%3D%220%22%2F%3E%3CmxCell%20id%3D%221%22%20parent%3D%220%22%2F%3E%3CmxCell%20id%3D%222%22%20value%3D%22%26lt%3Bdiv%26gt%3B%26amp%3Blt%3B%26amp%3Blt%3Bentity%26amp%3Bgt%3B%26amp%3Bgt%3B%26lt%3B%2Fdiv%26gt%3BUsuario%22%20style%3D%22html%3D1%3BwhiteSpace%3Dwrap%3B%22%20vertex%3D%221%22%20parent%3D%221%22%3E%3CmxGeometry%20x%3D%22360%22%20y%3D%22530%22%20width%3D%22110%22%20height%3D%2250%22%20as%3D%22geometry%22%2F%3E%3C%2FmxCell%3E%3C%2Froot%3E%3C%2FmxGraphModel%3E&lt;/span&gt;&lt;/div&gt;" style="html=1;whiteSpace=wrap;" vertex="1" parent="1">
          <mxGeometry x="920" y="860" width="110" height="50" as="geometry" />
        </mxCell>
        <mxCell id="emDB4eh1lMRL8pq1mr14-40" value="&lt;div&gt;&amp;lt;&amp;lt;entity&amp;gt;&amp;gt;&lt;/div&gt;UsuarioDB" style="html=1;whiteSpace=wrap;" vertex="1" parent="1">
          <mxGeometry x="1395" y="360" width="110" height="50" as="geometry" />
        </mxCell>
        <mxCell id="emDB4eh1lMRL8pq1mr14-41" value="&lt;div&gt;&amp;lt;&amp;lt;entity&amp;gt;&amp;gt;&lt;/div&gt;&lt;div style=&quot;text-align: center;&quot;&gt;&lt;span style=&quot;text-align: start; background-color: initial;&quot;&gt;AvaliacaoDB&lt;/span&gt;&lt;span style=&quot;color: rgba(0, 0, 0, 0); font-family: monospace; font-size: 0px; text-align: start; text-wrap: nowrap; background-color: initial;&quot;&gt;%3CmxGraphModel%3E%3Croot%3E%3CmxCell%20id%3D%220%22%2F%3E%3CmxCell%20id%3D%221%22%20parent%3D%220%22%2F%3E%3CmxCell%20id%3D%222%22%20value%3D%22%26lt%3Bdiv%26gt%3B%26amp%3Blt%3B%26amp%3Blt%3Bentity%26amp%3Bgt%3B%26amp%3Bgt%3B%26lt%3B%2Fdiv%26gt%3BUsuario%22%20style%3D%22html%3D1%3BwhiteSpace%3Dwrap%3B%22%20vertex%3D%221%22%20parent%3D%221%22%3E%3CmxGeometry%20x%3D%22360%22%20y%3D%22530%22%20width%3D%22110%22%20height%3D%2250%22%20as%3D%22geometry%22%2F%3E%3C%2FmxCell%3E%3C%2Froot%3E%3C%2FmxGraphModel%3E&lt;/span&gt;&lt;/div&gt;" style="html=1;whiteSpace=wrap;" vertex="1" parent="1">
          <mxGeometry x="1530" y="360" width="110" height="50" as="geometry" />
        </mxCell>
        <mxCell id="emDB4eh1lMRL8pq1mr14-42" value="Base" style="html=1;whiteSpace=wrap;" vertex="1" parent="1">
          <mxGeometry x="1460" y="220" width="110" height="50" as="geometry" />
        </mxCell>
        <mxCell id="emDB4eh1lMRL8pq1mr14-44" value="Extends" style="endArrow=block;endSize=16;endFill=0;html=1;rounded=0;entryX=0.5;entryY=1;entryDx=0;entryDy=0;exitX=0.5;exitY=0;exitDx=0;exitDy=0;edgeStyle=orthogonalEdgeStyle;" edge="1" parent="1" source="emDB4eh1lMRL8pq1mr14-25" target="emDB4eh1lMRL8pq1mr14-21">
          <mxGeometry width="160" relative="1" as="geometry">
            <mxPoint x="690" y="790" as="sourcePoint" />
            <mxPoint x="850" y="790" as="targetPoint" />
          </mxGeometry>
        </mxCell>
        <mxCell id="emDB4eh1lMRL8pq1mr14-45" value="Extends" style="endArrow=block;endSize=16;endFill=0;html=1;rounded=0;entryX=0.5;entryY=1;entryDx=0;entryDy=0;exitX=0.5;exitY=0;exitDx=0;exitDy=0;edgeStyle=orthogonalEdgeStyle;" edge="1" parent="1" source="emDB4eh1lMRL8pq1mr14-23" target="emDB4eh1lMRL8pq1mr14-21">
          <mxGeometry width="160" relative="1" as="geometry">
            <mxPoint x="690" y="790" as="sourcePoint" />
            <mxPoint x="850" y="790" as="targetPoint" />
          </mxGeometry>
        </mxCell>
        <mxCell id="emDB4eh1lMRL8pq1mr14-47" value="Extends" style="endArrow=block;endSize=16;endFill=0;html=1;rounded=0;exitX=0.5;exitY=0;exitDx=0;exitDy=0;edgeStyle=orthogonalEdgeStyle;entryX=0.5;entryY=1;entryDx=0;entryDy=0;" edge="1" parent="1" source="emDB4eh1lMRL8pq1mr14-41" target="emDB4eh1lMRL8pq1mr14-42">
          <mxGeometry width="160" relative="1" as="geometry">
            <mxPoint x="1070" y="410" as="sourcePoint" />
            <mxPoint x="1220" y="290" as="targetPoint" />
          </mxGeometry>
        </mxCell>
        <mxCell id="emDB4eh1lMRL8pq1mr14-48" value="Extends" style="endArrow=block;endSize=16;endFill=0;html=1;rounded=0;exitX=0.5;exitY=0;exitDx=0;exitDy=0;edgeStyle=orthogonalEdgeStyle;" edge="1" parent="1" source="emDB4eh1lMRL8pq1mr14-40" target="emDB4eh1lMRL8pq1mr14-42">
          <mxGeometry width="160" relative="1" as="geometry">
            <mxPoint x="1315" y="430" as="sourcePoint" />
            <mxPoint x="1230" y="300" as="targetPoint" />
          </mxGeometry>
        </mxCell>
        <mxCell id="emDB4eh1lMRL8pq1mr14-50" style="rounded=0;orthogonalLoop=1;jettySize=auto;html=1;dashed=1;endArrow=openThin;endFill=0;exitX=0.5;exitY=1;exitDx=0;exitDy=0;entryX=0.5;entryY=0;entryDx=0;entryDy=0;" edge="1" parent="1" source="emDB4eh1lMRL8pq1mr14-40" target="emDB4eh1lMRL8pq1mr14-36">
          <mxGeometry relative="1" as="geometry">
            <mxPoint x="790" y="578" as="sourcePoint" />
            <mxPoint x="1150" y="575" as="targetPoint" />
          </mxGeometry>
        </mxCell>
        <mxCell id="emDB4eh1lMRL8pq1mr14-53" style="rounded=0;orthogonalLoop=1;jettySize=auto;html=1;dashed=1;endArrow=openThin;endFill=0;exitX=1;exitY=0.5;exitDx=0;exitDy=0;entryX=0;entryY=0.5;entryDx=0;entryDy=0;" edge="1" parent="1" source="emDB4eh1lMRL8pq1mr14-32" target="emDB4eh1lMRL8pq1mr14-34">
          <mxGeometry relative="1" as="geometry">
            <mxPoint x="1435" y="430" as="sourcePoint" />
            <mxPoint x="1450" y="480" as="targetPoint" />
          </mxGeometry>
        </mxCell>
        <mxCell id="emDB4eh1lMRL8pq1mr14-54" style="rounded=0;orthogonalLoop=1;jettySize=auto;html=1;dashed=1;endArrow=openThin;endFill=0;exitX=0.5;exitY=1;exitDx=0;exitDy=0;entryX=0.5;entryY=0;entryDx=0;entryDy=0;" edge="1" parent="1" source="emDB4eh1lMRL8pq1mr14-34" target="emDB4eh1lMRL8pq1mr14-35">
          <mxGeometry relative="1" as="geometry">
            <mxPoint x="1445" y="440" as="sourcePoint" />
            <mxPoint x="1460" y="490" as="targetPoint" />
          </mxGeometry>
        </mxCell>
        <mxCell id="emDB4eh1lMRL8pq1mr14-55" style="rounded=0;orthogonalLoop=1;jettySize=auto;html=1;dashed=1;endArrow=openThin;endFill=0;exitX=0.5;exitY=0;exitDx=0;exitDy=0;entryX=0.5;entryY=1;entryDx=0;entryDy=0;" edge="1" parent="1" source="emDB4eh1lMRL8pq1mr14-34" target="emDB4eh1lMRL8pq1mr14-36">
          <mxGeometry relative="1" as="geometry">
            <mxPoint x="1455" y="450" as="sourcePoint" />
            <mxPoint x="1470" y="500" as="targetPoint" />
          </mxGeometry>
        </mxCell>
        <mxCell id="emDB4eh1lMRL8pq1mr14-56" value="Session" style="html=1;whiteSpace=wrap;" vertex="1" parent="1">
          <mxGeometry x="1250" y="360" width="110" height="50" as="geometry" />
        </mxCell>
        <mxCell id="emDB4eh1lMRL8pq1mr14-57" style="rounded=0;orthogonalLoop=1;jettySize=auto;html=1;dashed=1;endArrow=openThin;endFill=0;exitX=0.5;exitY=1;exitDx=0;exitDy=0;entryX=0;entryY=0.5;entryDx=0;entryDy=0;" edge="1" parent="1" source="emDB4eh1lMRL8pq1mr14-56" target="emDB4eh1lMRL8pq1mr14-36">
          <mxGeometry relative="1" as="geometry">
            <mxPoint x="1460" y="420" as="sourcePoint" />
            <mxPoint x="1460" y="460" as="targetPoint" />
          </mxGeometry>
        </mxCell>
      </root>
    </mxGraphModel>
  </diagram>
</mxfile>
